<svg xmlns="http://www.w3.org/2000/svg" version="1.1" viewBox="0 0 31 31" stroke="none" height="220" width="220">
	<rect width="100%" height="100%" fill="#ffffff"/>
	<path d="M1,1h1v1h-1z M2,1h1v1h-1z M3,1h1v1h-1z M4,1h1v1h-1z M5,1h1v1h-1z M6,1h1v1h-1z M7,1h1v1h-1z M9,1h1v1h-1z M13,1h1v1h-1z M15,1h1v1h-1z M16,1h1v1h-1z M17,1h1v1h-1z M18,1h1v1h-1z M20,1h1v1h-1z M21,1h1v1h-1z M23,1h1v1h-1z M24,1h1v1h-1z M25,1h1v1h-1z M26,1h1v1h-1z M27,1h1v1h-1z M28,1h1v1h-1z M29,1h1v1h-1z M1,2h1v1h-1z M7,2h1v1h-1z M9,2h1v1h-1z M10,2h1v1h-1z M12,2h1v1h-1z M13,2h1v1h-1z M14,2h1v1h-1z M16,2h1v1h-1z M17,2h1v1h-1z M18,2h1v1h-1z M19,2h1v1h-1z M21,2h1v1h-1z M23,2h1v1h-1z M29,2h1v1h-1z M1,3h1v1h-1z M3,3h1v1h-1z M4,3h1v1h-1z M5,3h1v1h-1z M7,3h1v1h-1z M10,3h1v1h-1z M11,3h1v1h-1z M15,3h1v1h-1z M16,3h1v1h-1z M23,3h1v1h-1z M25,3h1v1h-1z M26,3h1v1h-1z M27,3h1v1h-1z M29,3h1v1h-1z M1,4h1v1h-1z M3,4h1v1h-1z M4,4h1v1h-1z M5,4h1v1h-1z M7,4h1v1h-1z M11,4h1v1h-1z M12,4h1v1h-1z M13,4h1v1h-1z M14,4h1v1h-1z M15,4h1v1h-1z M18,4h1v1h-1z M21,4h1v1h-1z M23,4h1v1h-1z M25,4h1v1h-1z M26,4h1v1h-1z M27,4h1v1h-1z M29,4h1v1h-1z M1,5h1v1h-1z M3,5h1v1h-1z M4,5h1v1h-1z M5,5h1v1h-1z M7,5h1v1h-1z M10,5h1v1h-1z M11,5h1v1h-1z M13,5h1v1h-1z M15,5h1v1h-1z M18,5h1v1h-1z M19,5h1v1h-1z M20,5h1v1h-1z M21,5h1v1h-1z M23,5h1v1h-1z M25,5h1v1h-1z M26,5h1v1h-1z M27,5h1v1h-1z M29,5h1v1h-1z M1,6h1v1h-1z M7,6h1v1h-1z M10,6h1v1h-1z M12,6h1v1h-1z M15,6h1v1h-1z M17,6h1v1h-1z M18,6h1v1h-1z M21,6h1v1h-1z M23,6h1v1h-1z M29,6h1v1h-1z M1,7h1v1h-1z M2,7h1v1h-1z M3,7h1v1h-1z M4,7h1v1h-1z M5,7h1v1h-1z M6,7h1v1h-1z M7,7h1v1h-1z M9,7h1v1h-1z M11,7h1v1h-1z M13,7h1v1h-1z M15,7h1v1h-1z M17,7h1v1h-1z M19,7h1v1h-1z M21,7h1v1h-1z M23,7h1v1h-1z M24,7h1v1h-1z M25,7h1v1h-1z M26,7h1v1h-1z M27,7h1v1h-1z M28,7h1v1h-1z M29,7h1v1h-1z M15,8h1v1h-1z M16,8h1v1h-1z M17,8h1v1h-1z M18,8h1v1h-1z M19,8h1v1h-1z M20,8h1v1h-1z M2,9h1v1h-1z M7,9h1v1h-1z M8,9h1v1h-1z M9,9h1v1h-1z M10,9h1v1h-1z M11,9h1v1h-1z M14,9h1v1h-1z M22,9h1v1h-1z M28,9h1v1h-1z M29,9h1v1h-1z M5,10h1v1h-1z M10,10h1v1h-1z M12,10h1v1h-1z M13,10h1v1h-1z M15,10h1v1h-1z M17,10h1v1h-1z M18,10h1v1h-1z M19,10h1v1h-1z M25,10h1v1h-1z M27,10h1v1h-1z M2,11h1v1h-1z M3,11h1v1h-1z M4,11h1v1h-1z M6,11h1v1h-1z M7,11h1v1h-1z M9,11h1v1h-1z M11,11h1v1h-1z M15,11h1v1h-1z M19,11h1v1h-1z M20,11h1v1h-1z M22,11h1v1h-1z M26,11h1v1h-1z M1,12h1v1h-1z M2,12h1v1h-1z M3,12h1v1h-1z M8,12h1v1h-1z M10,12h1v1h-1z M11,12h1v1h-1z M13,12h1v1h-1z M17,12h1v1h-1z M20,12h1v1h-1z M21,12h1v1h-1z M22,12h1v1h-1z M25,12h1v1h-1z M26,12h1v1h-1z M28,12h1v1h-1z M29,12h1v1h-1z M2,13h1v1h-1z M4,13h1v1h-1z M6,13h1v1h-1z M7,13h1v1h-1z M10,13h1v1h-1z M11,13h1v1h-1z M12,13h1v1h-1z M13,13h1v1h-1z M15,13h1v1h-1z M23,13h1v1h-1z M24,13h1v1h-1z M26,13h1v1h-1z M27,13h1v1h-1z M28,13h1v1h-1z M29,13h1v1h-1z M1,14h1v1h-1z M2,14h1v1h-1z M3,14h1v1h-1z M4,14h1v1h-1z M6,14h1v1h-1z M9,14h1v1h-1z M12,14h1v1h-1z M14,14h1v1h-1z M19,14h1v1h-1z M21,14h1v1h-1z M23,14h1v1h-1z M24,14h1v1h-1z M25,14h1v1h-1z M27,14h1v1h-1z M28,14h1v1h-1z M29,14h1v1h-1z M2,15h1v1h-1z M3,15h1v1h-1z M5,15h1v1h-1z M6,15h1v1h-1z M7,15h1v1h-1z M8,15h1v1h-1z M9,15h1v1h-1z M11,15h1v1h-1z M13,15h1v1h-1z M17,15h1v1h-1z M19,15h1v1h-1z M23,15h1v1h-1z M25,15h1v1h-1z M28,15h1v1h-1z M3,16h1v1h-1z M8,16h1v1h-1z M11,16h1v1h-1z M13,16h1v1h-1z M14,16h1v1h-1z M17,16h1v1h-1z M21,16h1v1h-1z M23,16h1v1h-1z M24,16h1v1h-1z M25,16h1v1h-1z M26,16h1v1h-1z M27,16h1v1h-1z M29,16h1v1h-1z M2,17h1v1h-1z M4,17h1v1h-1z M6,17h1v1h-1z M7,17h1v1h-1z M9,17h1v1h-1z M12,17h1v1h-1z M15,17h1v1h-1z M16,17h1v1h-1z M19,17h1v1h-1z M22,17h1v1h-1z M25,17h1v1h-1z M27,17h1v1h-1z M28,17h1v1h-1z M1,18h1v1h-1z M2,18h1v1h-1z M4,18h1v1h-1z M6,18h1v1h-1z M8,18h1v1h-1z M9,18h1v1h-1z M10,18h1v1h-1z M11,18h1v1h-1z M13,18h1v1h-1z M17,18h1v1h-1z M22,18h1v1h-1z M23,18h1v1h-1z M24,18h1v1h-1z M25,18h1v1h-1z M1,19h1v1h-1z M2,19h1v1h-1z M4,19h1v1h-1z M7,19h1v1h-1z M8,19h1v1h-1z M9,19h1v1h-1z M12,19h1v1h-1z M14,19h1v1h-1z M17,19h1v1h-1z M18,19h1v1h-1z M20,19h1v1h-1z M24,19h1v1h-1z M27,19h1v1h-1z M29,19h1v1h-1z M1,20h1v1h-1z M3,20h1v1h-1z M12,20h1v1h-1z M13,20h1v1h-1z M16,20h1v1h-1z M17,20h1v1h-1z M20,20h1v1h-1z M23,20h1v1h-1z M25,20h1v1h-1z M28,20h1v1h-1z M1,21h1v1h-1z M7,21h1v1h-1z M8,21h1v1h-1z M9,21h1v1h-1z M12,21h1v1h-1z M14,21h1v1h-1z M15,21h1v1h-1z M18,21h1v1h-1z M21,21h1v1h-1z M22,21h1v1h-1z M23,21h1v1h-1z M24,21h1v1h-1z M25,21h1v1h-1z M27,21h1v1h-1z M28,21h1v1h-1z M29,21h1v1h-1z M9,22h1v1h-1z M10,22h1v1h-1z M13,22h1v1h-1z M16,22h1v1h-1z M18,22h1v1h-1z M19,22h1v1h-1z M21,22h1v1h-1z M25,22h1v1h-1z M27,22h1v1h-1z M1,23h1v1h-1z M2,23h1v1h-1z M3,23h1v1h-1z M4,23h1v1h-1z M5,23h1v1h-1z M6,23h1v1h-1z M7,23h1v1h-1z M9,23h1v1h-1z M10,23h1v1h-1z M11,23h1v1h-1z M12,23h1v1h-1z M15,23h1v1h-1z M16,23h1v1h-1z M17,23h1v1h-1z M18,23h1v1h-1z M20,23h1v1h-1z M21,23h1v1h-1z M23,23h1v1h-1z M25,23h1v1h-1z M26,23h1v1h-1z M28,23h1v1h-1z M1,24h1v1h-1z M7,24h1v1h-1z M12,24h1v1h-1z M14,24h1v1h-1z M16,24h1v1h-1z M18,24h1v1h-1z M19,24h1v1h-1z M21,24h1v1h-1z M25,24h1v1h-1z M26,24h1v1h-1z M28,24h1v1h-1z M1,25h1v1h-1z M3,25h1v1h-1z M4,25h1v1h-1z M5,25h1v1h-1z M7,25h1v1h-1z M10,25h1v1h-1z M12,25h1v1h-1z M14,25h1v1h-1z M16,25h1v1h-1z M18,25h1v1h-1z M20,25h1v1h-1z M21,25h1v1h-1z M22,25h1v1h-1z M23,25h1v1h-1z M24,25h1v1h-1z M25,25h1v1h-1z M26,25h1v1h-1z M29,25h1v1h-1z M1,26h1v1h-1z M3,26h1v1h-1z M4,26h1v1h-1z M5,26h1v1h-1z M7,26h1v1h-1z M11,26h1v1h-1z M12,26h1v1h-1z M13,26h1v1h-1z M14,26h1v1h-1z M18,26h1v1h-1z M19,26h1v1h-1z M20,26h1v1h-1z M22,26h1v1h-1z M26,26h1v1h-1z M27,26h1v1h-1z M28,26h1v1h-1z M1,27h1v1h-1z M3,27h1v1h-1z M4,27h1v1h-1z M5,27h1v1h-1z M7,27h1v1h-1z M11,27h1v1h-1z M12,27h1v1h-1z M13,27h1v1h-1z M14,27h1v1h-1z M16,27h1v1h-1z M17,27h1v1h-1z M18,27h1v1h-1z M22,27h1v1h-1z M23,27h1v1h-1z M24,27h1v1h-1z M25,27h1v1h-1z M28,27h1v1h-1z M1,28h1v1h-1z M7,28h1v1h-1z M9,28h1v1h-1z M11,28h1v1h-1z M15,28h1v1h-1z M17,28h1v1h-1z M19,28h1v1h-1z M21,28h1v1h-1z M23,28h1v1h-1z M27,28h1v1h-1z M29,28h1v1h-1z M1,29h1v1h-1z M2,29h1v1h-1z M3,29h1v1h-1z M4,29h1v1h-1z M5,29h1v1h-1z M6,29h1v1h-1z M7,29h1v1h-1z M13,29h1v1h-1z M15,29h1v1h-1z M16,29h1v1h-1z M18,29h1v1h-1z M20,29h1v1h-1z M23,29h1v1h-1z M24,29h1v1h-1z M26,29h1v1h-1z M27,29h1v1h-1z" fill="#0c0c0d"/>
</svg>